# This file uses centimeters as units for non-parametric coordinates.

mtllib plane.mtl
g default
v -5.000000 0.000000 5.000000
v 5.000000 0.000000 5.000000
v -5.000000 0.000000 -5.000000
v 5.000000 0.000000 -5.000000
vt 0.000000 0.000000
vt 1.000000 0.000000
vt 0.000000 1.000000
vt 1.000000 1.000000
vn 0.000000 1.000000 0.000000
vn 0.000000 1.000000 0.000000
vn 0.000000 1.000000 0.000000
vn 0.000000 1.000000 0.000000
s 1
g plane
usemtl initialShadingGroup
f 1/1/1 2/2/2 4/4/3
f 1/1/1 4/4/3 3/3/4
